<?xml version="1.0" standalone="no"?>
<!DOCTYPE svg PUBLIC "-//W3C//DTD SVG 20010904//EN"
 "http://www.w3.org/TR/2001/REC-SVG-20010904/DTD/svg10.dtd">
<svg version="1.0" xmlns="http://www.w3.org/2000/svg"
 width="700.000000pt" height="700.000000pt" viewBox="0 0 700.000000 700.000000"
 preserveAspectRatio="xMidYMid meet">
<metadata>
Created by potrace 1.14, written by Peter Selinger 2001-2017
</metadata>
<g transform="translate(0.000000,700.000000) scale(0.100000,-0.100000)"
fill="#000000" stroke="none">
<path d="M646 6040 c-2 -3 -2 -196 -2 -430 l1 -425 850 0 850 0 0 -1285 c0
-707 -3 -1319 -8 -1360 -19 -188 -84 -385 -160 -485 -102 -134 -267 -224 -458
-250 -30 -4 -63 -9 -74 -12 -27 -5 -268 -4 -330 2 -111 11 -232 28 -320 45
-138 27 -208 42 -290 61 -49 11 -97 22 -105 24 -8 1 -35 8 -59 15 -23 6 -44
10 -46 8 -3 -3 -154 -647 -161 -688 -2 -14 -6 -35 -9 -47 -5 -20 3 -24 77 -47
89 -26 229 -65 256 -71 9 -2 57 -13 105 -25 49 -12 101 -23 115 -25 15 -2 65
-11 112 -19 78 -14 104 -18 195 -31 284 -42 721 -51 910 -20 320 54 509 129
695 276 242 190 408 513 455 885 4 27 8 60 10 74 2 14 7 54 11 90 8 73 12
3727 4 3739 -6 8 -2620 10 -2624 1z"/>
<path d="M3457 6035 c-2 -5 -3 -1135 -3 -2510 l1 -2500 455 0 c250 0 462 1
470 3 13 3 15 110 12 912 l-3 909 984 -1 c542 0 989 2 994 5 6 4 10 169 10
427 l0 420 -994 0 -993 0 0 735 0 735 1145 0 c630 0 1145 3 1145 8 1 11 1 824
1 847 l-1 21 -1610 0 c-1109 0 -1611 -3 -1613 -11z"/>
</g>
</svg>
