<svg width="22" height="22" viewBox="0 0 22 22" fill="none" xmlns="http://www.w3.org/2000/svg">
<rect width="22" height="22" fill="none"/>
<path d="M10.8564 18.7746V3H21V5.7493H13.7911V10.369L20.043 10.369V13.0507H13.7911L13.8123 18.7746H10.8564Z" fill="black"/>
<path d="M1 18.2563L1.5529 15.8676C1.94985 15.9728 2.33262 16.0629 2.70122 16.138C3.06982 16.2131 3.42424 16.2732 3.76449 16.3183C4.10473 16.3634 4.41662 16.3859 4.70016 16.3859C5.29559 16.3859 5.79178 16.2883 6.18873 16.093C6.58568 15.8977 6.8834 15.5746 7.08187 15.1239C7.28035 14.6732 7.37958 14.0648 7.37958 13.2986V5.70423H2.02073V3H10.2929V13.9972C10.2929 15.0939 10.1228 16.0178 9.78256 16.769C9.44232 17.5052 8.91777 18.061 8.20893 18.4366C7.51427 18.8122 6.61403 19 5.50824 19C5.02623 19 4.53004 18.97 4.01967 18.9099C3.5093 18.8498 2.99894 18.7671 2.48857 18.662C1.9782 18.5418 1.48201 18.4066 1 18.2563Z" fill="black"/>
</svg>
